Coordinates
version=1
nRows=29
nColumns=22
inDegrees=yes

Units are S.I. units (second, meters, Newtons, ...)
If the header above contains a line with 'inDegrees', this indicates whether rotational values are in degrees (yes) or radians (no).

endheader
time	pelvis_tilt	pelvis_list	pelvis_rotation	pelvis_tx	pelvis_ty	pelvis_tz	hip_flexion_r	hip_adduction_r	hip_rotation_r	knee_angle_r	ankle_angle_r	subtalar_angle_r	hip_flexion_l	hip_adduction_l	hip_rotation_l	knee_angle_l	ankle_angle_l	subtalar_angle_l	lumbar_extension	lumbar_bending	lumbar_rotation
      2.66000000	      2.03533511	    -11.65343518	    -92.25494157	      0.35458050	      0.94700936	      0.44688360	      7.46840469	     -4.31925605	     -2.81519544	    -59.45674928	      7.32508917	     -0.21063722	      3.00165495	      3.89734530	    -12.46060477	    -22.16323671	     13.49457406	    -10.94681739	    -14.30384550	     -0.43656134	     -9.47186574
      2.67000000	      2.08478171	    -11.71474870	    -92.17519477	      0.35598265	      0.94751080	      0.45113246	      7.79331030	     -4.59305456	     -3.20581352	    -58.49431866	      8.25925141	     -0.65827862	      2.50895345	      4.08331584	    -12.41754888	    -21.89346902	     13.60846476	    -10.93029319	    -14.48834375	     -0.53298894	     -9.89311175
      2.68000000	      2.09635009	    -11.76126583	    -92.10626594	      0.35725820	      0.94792319	      0.45524783	      8.06078299	     -4.79478398	     -3.55115391	    -57.42753847	      9.12450065	     -1.14739287	      2.06960832	      4.20316209	    -12.45933383	    -21.69019632	     13.79921025	    -10.95647082	    -14.66139372	     -0.59720589	    -10.25829183
      2.69000000	      2.07447495	    -11.71129105	    -92.03851160	      0.35841635	      0.94813548	      0.45920778	      8.37459627	     -4.90185105	     -3.80149974	    -56.28115814	      9.90916151	     -1.16256334	      1.77205967	      4.27127842	    -12.48497090	    -21.53983058	     14.01172895	    -10.94684169	    -14.72495454	     -0.62726656	    -10.60467918
      2.70000000	      2.04154877	    -11.67403574	    -91.95130926	      0.35951305	      0.94835591	      0.46306332	      8.59039534	     -4.97297220	     -4.02989053	    -55.02434437	     10.62584958	     -1.19938633	      1.46587299	      4.32416466	    -12.48270966	    -21.38597910	     14.22285940	    -10.96567773	    -14.80029131	     -0.64655047	    -10.94696335
      2.71000000	      1.99528427	    -11.68733141	    -91.84119716	      0.36055973	      0.94867435	      0.46682774	      8.65941673	     -5.00762259	     -4.24408689	    -53.64652253	     11.22017305	     -1.32359770	      1.09174834	      4.36316176	    -12.45214467	    -21.19473700	     14.44085985	    -11.05840438	    -14.93369003	     -0.64986180	    -11.28735191
      2.72000000	      1.92887587	    -11.57458015	    -91.75204452	      0.36144770	      0.94875228	      0.47042402	      8.82813862	     -4.95675713	     -4.33793327	    -52.21919050	     11.82661172	     -1.25865267	      0.90369504	      4.35191848	    -12.46568925	    -21.07863993	     14.67058170	    -11.06918262	    -14.92309328	     -0.64381651	    -11.55592594
      2.73000000	      1.85027980	    -11.47098218	    -91.63872397	      0.36228868	      0.94885557	      0.47390563	      8.90997805	     -4.86757525	     -4.40506610	    -50.70002832	     12.35767125	     -1.17156589	      0.71000945	      4.32296022	    -12.44125179	    -20.95452051	     14.90681986	    -11.07956153	    -14.92426193	     -0.62082176	    -11.83081735
      2.74000000	      1.75878228	    -11.43074414	    -91.50574428	      0.36309481	      0.94909374	      0.47730421	      8.83555945	     -4.75529228	     -4.47571143	    -49.07587207	     12.76379026	     -1.03114379	      0.43465216	      4.27890902	    -12.39639138	    -20.79729084	     15.15160678	    -11.10708379	    -14.99617635	     -0.57918882	    -12.10612785
      2.75000000	      1.66918680	    -11.30745748	    -91.36970450	      0.36382386	      0.94918142	      0.48056761	      8.80827680	     -4.61887007	     -4.49603067	    -47.42054201	     13.18488623	     -0.90202239	      0.27930921	      4.22167760	    -12.35553430	    -20.67597985	     15.37173861	    -11.09803036	    -14.97222182	     -0.54238114	    -12.33925040
      2.76000000	      1.56879664	    -11.20356602	    -91.22725548	      0.36449468	      0.94932636	      0.48373264	      8.69102987	     -4.45321641	     -4.48321540	    -45.70102438	     13.50335358	     -0.76142283	      0.09746017	      4.15240019	    -12.27774625	    -20.53123016	     15.57477209	    -11.07645284	    -14.96836581	     -0.49088346	    -12.55667538
      2.77000000	      1.46689765	    -11.09859848	    -91.08221361	      0.36511257	      0.94948169	      0.48680446	      8.51554229	     -4.27647973	     -4.44753724	    -43.94178250	     13.74617206	     -0.62853373	     -0.07917599	      4.07519292	    -12.19322083	    -20.38096920	     15.76318624	    -11.02905983	    -14.96028772	     -0.43513051	    -12.74624448
      2.78000000	      1.36809830	    -11.01625725	    -90.94321197	      0.36566111	      0.94969017	      0.48979059	      8.25776715	     -4.08986980	     -4.36943517	    -42.15172910	     13.88543868	     -0.49167221	     -0.28781190	      3.99858251	    -12.09914546	    -20.20357130	     15.93205051	    -10.91996297	    -14.97530323	     -0.38355678	    -12.90445642
      2.79000000	      1.25987585	    -10.89596138	    -90.78340603	      0.36619592	      0.94982329	      0.49270053	      7.98920537	     -3.89955872	     -4.32716905	    -40.35676349	     14.00389573	     -0.40208305	     -0.42225490	      3.89277449	    -12.03382995	    -20.07921060	     16.12371152	    -10.79743524	    -14.93951066	     -0.31201847	    -13.04922046
      2.80000000	      1.16483890	    -10.81493983	    -90.64483502	      0.36663238	      0.95003164	      0.49554457	      7.63158645	     -3.71003204	     -4.23132998	    -38.55971163	     14.01895831	     -0.29984760	     -0.61974544	      3.80336250	    -11.94985483	    -19.90514226	     16.27574282	    -10.57163899	    -14.94465343	     -0.26090206	    -13.15420982
      2.81000000	      1.05723370	    -10.68719437	    -90.47599344	      0.36707372	      0.95014466	      0.49832097	      7.28199033	     -3.52029732	     -4.20805298	    -36.78325094	     14.00694246	     -0.22716876	     -0.72996210	      3.68319195	    -11.87952180	    -19.79287747	     16.46583140	    -10.39123076	    -14.88818758	     -0.18531422	    -13.26179037
      2.82000000	      0.97255143	    -10.60713494	    -90.32740837	      0.36743190	      0.95033400	      0.50103099	      6.84942497	     -3.35118496	     -4.15890779	    -35.04203681	     13.91654601	     -0.13130634	     -0.91688232	      3.59386244	    -11.78709044	    -19.62110548	     16.60260129	    -10.08863257	    -14.88554414	     -0.13872192	    -13.32529992
      2.83000000	      0.86836210	    -10.46889667	    -90.14174429	      0.36780712	      0.95040029	      0.50366357	      6.45622847	     -3.18214920	     -4.23151688	    -33.36784246	     13.78011795	     -0.08302325	     -0.99787333	      3.47003087	    -11.68456622	    -19.52028675	     16.78450847	     -9.89513945	    -14.81034939	     -0.05868542	    -13.40253099
      2.84000000	      0.77608095	    -10.35783430	    -89.95917388	      0.36813572	      0.95050633	      0.50623964	      6.01537045	     -3.03330865	     -4.34804845	    -31.77328678	     13.58188751	     -0.05430605	     -1.12178189	      3.36262505	    -11.56223061	    -19.38552281	     16.93999563	     -9.65851575	    -14.76379040	      0.00887824	    -13.45488761
      2.85000000	      0.68588279	    -10.24409441	    -89.77015325	      0.36844660	      0.95059210	      0.50873814	      5.57630717	     -2.89918038	     -4.53924302	    -30.30369477	     13.34673954	     -0.06691605	     -1.23621024	      3.25845258	    -11.41705402	    -19.25066012	     17.08231878	     -9.42606728	    -14.71320533	      0.08039540	    -13.49241493
      2.86000000	      0.59308522	    -10.12865764	    -89.57317429	      0.36872262	      0.95066888	      0.51116735	      5.14352903	     -2.77227610	     -4.81258030	    -28.98112449	     13.08102958	     -0.13131934	     -1.34082940	      3.14966384	    -11.24951892	    -19.12205131	     17.22077292	     -9.21370150	    -14.65866609	      0.15625885	    -13.51920610
      2.87000000	      0.49732672	    -10.01720439	    -89.37289031	      0.36896242	      0.95074761	      0.51351768	      4.72338086	     -2.65032303	     -5.15423470	    -27.83553708	     12.80794477	     -0.25204546	     -1.44255061	      3.03603887	    -11.06569407	    -18.99531172	     17.35433742	     -9.01836737	    -14.60859651	      0.23715706	    -13.53237739
      2.88000000	      0.39669326	     -9.90394858	    -89.17365533	      0.36915556	      0.95083106	      0.51578858	      4.32561800	     -2.52819561	     -5.54484559	    -26.86746827	     12.55249099	     -0.42401463	     -1.53598656	      2.91523840	    -10.86970779	    -18.86822570	     17.48278443	     -8.84366621	    -14.55675303	      0.32477406	    -13.52635522
      2.89000000	      0.28783503	     -9.80337532	    -88.98443093	      0.36928394	      0.95095161	      0.51797325	      3.93866873	     -2.39702506	     -5.95331764	    -26.06486501	     12.34517221	     -0.67404706	     -1.64283224	      2.78516823	    -10.65894060	    -18.72878470	     17.58988350	     -8.66526040	    -14.52194467	      0.41684890	    -13.47835646
      2.90000000	      0.17061876	     -9.67707060	    -88.79735661	      0.36935667	      0.95105226	      0.52008062	      3.60354954	     -2.25820698	     -6.37684947	    -25.40025135	     12.15711796	     -0.87081542	     -1.70364492	      2.63937333	    -10.46132789	    -18.61186750	     17.71346377	     -8.54507919	    -14.45526045	      0.51697319	    -13.43849318
      2.91000000	      0.04358148	     -9.55415639	    -88.62889742	      0.36934639	      0.95120082	      0.52212882	      3.27661003	     -2.10264342	     -6.77369277	    -24.81410863	     12.00665457	     -1.05159468	     -1.77177190	      2.48214059	    -10.26785909	    -18.47876872	     17.81892485	     -8.43423006	    -14.38942956	      0.62231337	    -13.37352904
      2.92000000	     -0.09709724	     -9.41515277	    -88.47084594	      0.36927372	      0.95137006	      0.52412588	      2.97160887	     -1.92625523	     -7.13657751	    -24.26178942	     11.86212262	     -1.15918300	     -1.82212807	      2.30680904	    -10.09122939	    -18.33615059	     17.92133182	     -8.35093356	    -14.29950658	      0.73998917	    -13.30998632
      2.93000000	     -0.25159430	     -9.27759372	    -88.33348990	      0.36913892	      0.95159342	      0.52606650	      2.66545808	     -1.72712069	     -7.44927046	    -23.70645538	     11.72130341	     -1.23375836	     -1.88049142	      2.11949502	     -9.90434569	    -18.17434213	     17.99166764	     -8.27315633	    -14.21017783	      0.86717035	    -13.19590021
      2.94000000	     -0.41767455	     -9.15547493	    -88.20996444	      0.36896062	      0.95189157	      0.52799773	      2.33477241	     -1.51360519	     -7.75066577	    -23.12577586	     11.54072961	     -1.28572158	     -1.97600593	      1.91688219	     -9.75626854	    -17.97051242	     18.05368842	     -8.18412527	    -14.12903447	      1.00719915	    -13.08226059
